<?xml version="1.0" encoding="utf-8"?>
<!DOCTYPE svg PUBLIC "-//W3C//DTD SVG 1.1//EN" "http://www.w3.org/Graphics/SVG/1.1/DTD/svg11.dtd">
<svg version="1.1" xmlns="http://www.w3.org/2000/svg" xmlns:xlink="http://www.w3.org/1999/xlink" x="0px" y="0px" width="540px" height="405px" viewBox="0 0 5400 4050" preserveAspectRatio="xMidYMid meet">
<g id="layer101">
 <path fill="#291d13" d="M2985 3155 c-14 -13 -25 -30 -26 -37 0 -7 -2 -35 -5 -63 -3 -27 -4 -66 -3 -85 8 -121 4 -144 -27 -195 -44 -72 -63 -71 -104 7 -35 66 -135 224 -169 269 -12 16 -52 39 -102 59 -67 26 -91 31 -136 28 -78 -7 -85 -17 -86 -134 0 -55 4 -140 8 -191 7 -79 5 -96 -9 -118 -21 -32 -33 -25 -75 48 -16 29 -42 66 -56 82 -15 17 -37 51 -50 76 -34 65 -81 103 -161 127 -101 30 -172 34 -196 10 -10 -10 -18 -28 -18 -41 0 -13 -7 -47 -16 -77 -15 -49 -15 -60 2 -136 19 -92 16 -228 -7 -277 -21 -46 -52 -46 -229 4 -81 22 -177 36 -301 44 -53 3 -123 10 -155 16 -103 20 -386 -33 -450 -84 -61 -47 -66 -111 -14 -164 37 -38 59 -46 190 -73 130 -27 206 -55 340 -127 187 -100 361 -248 455 -388 49 -74 170 -185 283 -259 54 -36 105 -72 112 -81 7 -9 17 -39 21 -68 8 -52 42 -97 74 -97 7 0 23 -14 35 -30 30 -43 57 -40 65 7 4 21 9 46 11 55 6 20 48 34 124 43 51 6 57 5 77 -19 31 -35 58 -33 96 8 51 54 69 60 146 46 80 -15 88 -19 151 -75 56 -50 94 -61 175 -51 47 5 57 3 74 -15 28 -31 31 -54 11 -92 -15 -28 -17 -42 -9 -78 17 -81 29 -99 60 -99 24 0 32 7 50 42 12 23 31 55 42 70 l20 27 -28 40 c-32 47 -45 121 -24 138 8 6 45 23 82 37 77 29 122 64 197 154 72 86 83 90 215 85 124 -6 192 7 297 57 84 40 95 39 115 -11 14 -36 17 -39 26 -23 6 11 13 35 17 54 4 26 11 36 30 40 19 5 26 14 32 46 3 23 24 69 47 103 22 34 52 98 66 141 26 79 26 80 15 217 -10 115 -16 148 -40 200 -15 34 -40 69 -55 79 -36 23 -55 64 -55 119 0 85 -31 121 -165 190 -79 41 -96 46 -135 42 -46 -6 -178 -63 -239 -104 -25 -17 -48 -23 -92 -23 -62 0 -85 14 -93 53 -3 12 -15 63 -27 112 -12 50 -24 109 -26 133 -4 33 -12 48 -34 64 -16 12 -39 38 -53 58 -32 49 -155 110 -220 110 -36 0 -52 -6 -71 -25z"/>
 </g>
<g id="layer102">
 <path fill="#5f4a30" d="M3028 3169 c15 -6 30 -5 40 1 13 7 8 9 -23 9 -35 0 -37 -1 -17 -10z"/>
 <path fill="#5f4a30" d="M3160 3139 c0 -9 48 -24 55 -17 2 2 -9 9 -25 15 -17 6 -30 7 -30 2z"/>
 <path fill="#5f4a30" d="M2393 3133 c9 -2 25 -2 35 0 9 3 1 5 -18 5 -19 0 -27 -2 -17 -5z"/>
 <path fill="#5f4a30" d="M2534 3105 c11 -8 29 -15 40 -15 25 0 19 4 -24 18 -32 11 -33 10 -16 -3z"/>
 <path fill="#5f4a30" d="M2640 3055 c40 -48 43 -51 32 -30 -6 11 -21 29 -34 40 -22 19 -22 19 2 -10z"/>
 <path fill="#5f4a30" d="M3129 3059 c-9 -18 -12 -18 -38 -5 -37 20 -71 10 -71 -19 0 -28 -21 -47 -39 -36 -8 5 -11 17 -6 30 3 11 3 26 -1 33 -14 22 -34 -74 -24 -112 15 -54 12 -102 -9 -144 -11 -21 -18 -43 -17 -49 1 -7 1 -8 -2 -4 -2 5 -11 -1 -19 -12 -24 -35 -47 -26 -78 32 -15 28 -53 91 -84 139 -47 74 -60 88 -83 88 -15 0 -33 8 -40 18 -19 27 -153 25 -173 -2 -9 -12 -21 -17 -35 -13 -16 4 -23 -1 -30 -18 -13 -33 -30 -41 -37 -16 -9 36 -23 12 -18 -32 18 -166 18 -216 1 -242 -21 -32 -33 -25 -75 48 -16 29 -42 66 -56 82 -15 17 -33 42 -41 56 -10 20 -19 25 -38 22 -16 -3 -31 2 -45 16 -37 37 -167 55 -145 20 5 -8 -6 -9 -36 -4 -31 5 -41 4 -35 -4 5 -8 -1 -10 -18 -6 -22 6 -26 3 -32 -25 -5 -22 -12 -30 -23 -28 -18 4 -19 15 -7 61 4 15 3 27 -2 27 -5 0 -15 -22 -22 -49 -11 -43 -10 -61 5 -127 19 -86 16 -229 -7 -277 -21 -46 -52 -46 -229 4 -86 23 -183 37 -305 44 -55 2 -127 10 -159 16 -46 9 -76 9 -129 -1 -47 -8 -65 -15 -56 -21 10 -6 8 -9 -9 -9 -13 0 -21 4 -18 8 9 15 -107 -5 -164 -28 -119 -47 -150 -125 -80 -197 37 -38 59 -46 190 -73 130 -27 206 -55 340 -127 188 -100 361 -248 455 -389 19 -28 70 -85 115 -127 79 -75 225 -175 245 -169 5 2 7 1 3 -3 -4 -4 5 -17 19 -29 18 -16 28 -37 34 -75 9 -61 22 -79 67 -98 18 -7 35 -20 39 -28 3 -8 13 -15 23 -15 10 0 20 -6 23 -12 7 -21 16 -4 26 46 7 39 6 46 -5 42 -8 -3 -14 -1 -14 5 0 5 7 12 15 15 8 4 15 14 15 24 0 12 8 18 26 18 l25 0 -23 -25 -23 -24 25 9 c14 5 52 13 85 16 56 7 62 6 83 -18 30 -35 57 -33 95 8 51 54 69 60 146 46 80 -15 88 -19 151 -75 56 -50 94 -61 175 -51 47 5 57 3 74 -15 28 -30 31 -54 11 -91 -18 -34 -17 -103 2 -92 6 4 8 -1 4 -14 -11 -34 13 -72 45 -72 24 0 32 8 50 43 12 23 28 50 37 60 9 11 11 17 4 17 -7 0 -12 -4 -12 -8 0 -12 -34 -8 -38 3 -1 6 12 11 29 12 17 1 33 4 36 7 3 3 -6 24 -22 46 -32 46 -45 120 -24 137 8 6 45 23 82 37 77 29 122 64 197 154 72 86 83 90 215 85 124 -6 192 7 297 57 80 38 96 38 109 0 18 -49 49 -34 49 24 0 23 35 60 49 52 5 -3 11 11 13 32 3 21 24 66 46 100 22 35 53 99 67 142 26 79 26 80 15 217 -10 114 -16 148 -40 199 -27 60 -73 105 -97 97 -7 -3 -13 3 -13 12 0 9 4 13 10 10 6 -3 7 1 4 9 -3 9 -9 14 -13 12 -3 -2 -4 20 -3 49 3 35 -2 63 -13 85 -16 30 -17 31 -38 16 -12 -9 -37 -26 -54 -39 -40 -27 -48 -46 -30 -64 11 -11 25 -12 66 -5 70 13 65 -2 -6 -17 -80 -16 -110 -14 -132 8 -19 19 -20 19 -58 -9 -21 -16 -42 -30 -47 -30 -6 0 9 14 32 31 24 17 50 45 58 63 21 40 62 84 96 102 25 13 31 13 55 -3 24 -14 26 -14 13 0 -8 9 -55 37 -105 62 -79 41 -96 46 -135 42 -46 -6 -178 -63 -239 -104 -25 -17 -48 -23 -92 -23 -62 0 -85 14 -93 53 -3 12 -15 63 -27 112 -12 50 -24 108 -26 130 -4 31 -15 50 -49 83 -40 38 -43 39 -30 13 14 -27 14 -29 -4 -34 -13 -3 -21 1 -25 13 -3 10 -29 26 -60 38 -54 19 -56 19 -66 1z m-789 -409 c0 -5 -6 -10 -13 -10 -21 0 -57 -44 -72 -87 -10 -29 -15 -34 -20 -21 -4 10 -1 24 7 32 7 8 24 31 38 50 14 19 32 37 40 39 8 3 16 5 18 6 1 0 2 -3 2 -9z m462 -12 c-5 -7 -12 -22 -15 -33 -3 -13 -5 -9 -6 13 -1 23 3 32 15 32 12 0 14 -3 6 -12z m790 -34 c-4 -43 -13 -52 -18 -18 -2 15 12 64 18 64 2 0 2 -21 0 -46z m-1259 -9 c-8 -22 -22 -18 -16 5 3 11 9 17 14 15 4 -3 6 -12 2 -20z m1119 -10 c-5 -28 -4 -27 -27 -18 -15 5 -15 8 6 24 13 10 25 19 25 19 1 0 -1 -11 -4 -25z m-636 -51 c11 4 11 2 2 -13 -8 -13 -8 -26 0 -49 7 -20 7 -34 1 -37 -12 -8 -16 7 -22 75 -2 30 -2 47 0 37 3 -11 11 -16 19 -13z m-515 -25 c-6 -18 -11 -48 -11 -67 0 -34 0 -35 -20 -17 -11 10 -20 25 -20 34 0 13 2 13 9 2 10 -15 13 -11 31 47 7 23 15 40 18 38 2 -3 -1 -19 -7 -37z m-956 21 c4 -6 16 -8 27 -4 15 4 19 2 16 -7 -7 -20 -68 -9 -68 11 0 13 17 13 25 0z m180 -52 c-16 -6 -35 -15 -42 -20 -7 -5 -18 -6 -24 -2 -8 5 1 12 27 20 48 15 80 16 39 2z m2430 -28 c4 -6 16 -8 27 -4 17 5 20 3 15 -11 -4 -9 -7 -20 -7 -23 0 -4 -19 -8 -42 -10 -34 -2 -40 0 -30 10 6 6 12 20 12 30 0 20 15 24 25 8z m155 0 c0 -5 -7 -10 -15 -10 -8 0 -15 5 -15 10 0 6 7 10 15 10 8 0 15 -4 15 -10z m-371 -60 c16 0 42 5 58 10 26 9 27 9 9 -5 -27 -21 -102 -20 -110 1 -3 9 -6 21 -5 27 0 7 4 2 9 -10 7 -17 18 -23 39 -23z m-2149 22 c0 -13 -12 -22 -22 -16 -10 6 -1 24 13 24 5 0 9 -4 9 -8z m94 -81 c17 -19 17 -19 -2 -14 -12 3 -23 11 -26 19 -8 20 8 17 28 -5z m51 -30 c5 -17 4 -22 -6 -19 -7 2 -14 17 -16 34 -5 33 10 23 22 -15z m2116 -146 c14 5 20 -2 28 -33 6 -22 37 -69 71 -110 60 -72 69 -94 18 -48 -14 14 -29 22 -34 18 -4 -4 -4 -1 0 6 5 9 3 12 -5 11 -24 -5 -74 12 -61 20 7 4 10 15 6 25 -5 14 -9 15 -15 4 -7 -10 -9 -9 -9 5 0 11 -4 15 -12 11 -7 -5 -8 -3 -2 7 4 8 9 20 10 27 2 8 5 17 8 20 4 3 5 -5 3 -18 -3 -16 5 -33 24 -51 18 -18 24 -29 16 -32 -7 -2 -4 -3 6 -1 10 1 14 -2 10 -8 -4 -7 -1 -8 7 -3 10 6 8 12 -8 26 -12 9 -22 20 -22 24 0 3 -7 13 -15 22 -8 8 -12 19 -9 25 11 18 -26 39 -48 27 -10 -5 -23 -7 -28 -4 -6 3 -10 1 -10 -6 0 -9 -4 -9 -15 1 -8 6 -19 9 -24 5 -7 -3 -8 0 -5 9 3 9 10 13 16 10 5 -3 21 6 36 21 26 26 27 27 36 6 6 -14 15 -19 27 -16z m95 -282 c-6 -6 -46 20 -46 30 0 4 11 0 25 -9 14 -9 24 -19 21 -21z m126 -38 c2 -20 0 -35 -7 -35 -7 0 -7 -3 1 -8 19 -13 46 -94 35 -105 -12 -12 -13 -8 -15 32 -1 13 -7 26 -15 29 -10 3 -13 -3 -9 -27 8 -51 -9 -35 -27 27 -9 31 -23 61 -31 65 -7 4 -19 18 -25 30 -7 12 -8 19 -5 15 10 -9 66 11 66 24 0 26 28 -16 32 -47z m-584 -241 c-3 -21 -4 -22 -23 -7 -14 11 -16 17 -7 20 6 3 12 17 13 31 l0 27 10 -25 c5 -13 9 -34 7 -46z m-924 -130 c9 -3 16 -10 16 -14 0 -10 -49 0 -56 11 -6 10 17 12 40 3z m-384 -29 c0 -8 -52 -26 -58 -20 -3 2 6 9 19 14 28 11 39 13 39 6z m-104 -34 c-5 -8 -56 -3 -56 5 0 2 14 4 31 4 16 0 28 -4 25 -9z m428 0 c4 -5 0 -12 -6 -15 -7 -3 -1 -3 13 0 35 7 44 -9 18 -32 -17 -16 -22 -16 -29 -4 -6 8 -10 11 -10 5 0 -5 -6 1 -14 15 -7 14 -11 28 -9 33 6 10 31 9 37 -2z m-189 -50 c-3 -6 -14 -11 -23 -11 -13 0 -13 2 4 14 21 15 30 14 19 -3z m138 -66 c20 5 20 5 4 -5 -15 -9 -22 -8 -38 6 -10 9 -19 22 -19 28 0 6 7 0 16 -12 11 -16 22 -21 37 -17z m-327 6 c10 8 10 5 1 -15 -15 -33 -23 -33 -30 0 -3 18 -1 22 6 15 7 -7 14 -7 23 0z m960 -241 c9 0 12 -4 9 -10 -9 -15 -55 -8 -55 8 0 9 6 12 16 8 9 -3 22 -6 30 -6z"/>
 <path fill="#5f4a30" d="M4025 1856 c-21 -15 -14 -46 10 -46 11 0 15 9 13 30 -1 17 -3 30 -3 30 -1 0 -10 -6 -20 -14z"/>
 <path fill="#5f4a30" d="M1964 3025 c11 -8 31 -15 45 -14 26 1 23 3 -34 20 -28 8 -29 8 -11 -6z"/>
 </g>
<g id="layer103">
 <path fill="#8d6d43" d="M3134 3055 c-7 -17 -40 -20 -49 -5 -3 5 -17 9 -30 8 -18 -2 -25 -8 -25 -23 0 -33 -25 -62 -41 -48 -20 15 -49 12 -49 -4 0 -8 5 -11 10 -8 6 3 15 -6 20 -20 16 -42 12 -113 -10 -155 -11 -22 -20 -44 -20 -51 0 -10 -10 -25 -69 -99 -16 -21 -22 -39 -18 -58 3 -17 -2 -37 -16 -56 l-21 -30 27 -105 c15 -58 27 -119 26 -136 -1 -20 -3 -23 -6 -10 -16 79 -37 162 -42 170 -3 6 -9 -3 -12 -20 -6 -28 -7 -28 -8 10 -1 22 -12 113 -25 203 -26 173 -43 220 -131 357 -28 44 -40 56 -55 52 -11 -3 -36 -1 -55 3 -37 8 -95 -11 -95 -32 0 -6 -11 -8 -26 -5 -20 3 -27 -1 -34 -18 -5 -12 -21 -32 -37 -44 -15 -13 -23 -20 -16 -16 17 8 28 -53 28 -155 0 -83 -5 -107 -44 -255 -16 -58 -17 -74 -6 -95 7 -14 15 -38 18 -55 5 -27 4 -27 -11 7 -22 49 -46 60 -40 18 3 -17 1 -27 -4 -22 -4 4 -11 30 -14 57 -5 43 -41 181 -61 232 -4 11 -2 14 5 9 6 -4 26 0 45 8 21 8 40 10 48 5 22 -14 38 -10 49 12 16 29 3 37 -16 10 -15 -21 -17 -21 -34 -6 -10 9 -19 12 -21 6 -2 -6 -12 8 -21 30 -11 25 -12 37 -5 33 7 -3 4 1 -5 9 -10 8 -15 17 -11 20 3 4 -2 9 -11 13 -9 3 -16 12 -16 20 0 8 -4 14 -8 14 -5 0 -17 15 -27 34 -15 27 -24 34 -44 32 -18 -1 -26 -7 -25 -19 2 -25 -3 -21 -22 16 -23 44 -39 54 -96 56 -34 1 -47 -2 -46 -11 2 -9 -9 -12 -35 -11 -24 2 -36 -1 -32 -8 4 -6 -4 -9 -21 -7 -22 2 -29 -2 -34 -22 -5 -20 -12 -24 -32 -22 -19 2 -27 -3 -31 -18 -3 -11 -1 -17 4 -14 6 3 7 -6 4 -23 -5 -19 -4 -24 3 -14 7 10 13 0 21 -38 18 -83 16 -111 -23 -321 -1 -8 -10 -30 -20 -49 -17 -32 -17 -35 0 -72 9 -22 23 -44 31 -51 8 -6 19 -20 25 -31 8 -17 8 -19 -5 -14 -11 4 -14 2 -10 -9 10 -27 -5 -14 -42 37 -20 28 -45 53 -55 56 -10 3 -33 23 -50 45 -18 22 -38 37 -45 34 -8 -3 -19 2 -26 10 -15 18 -63 44 -91 49 -12 3 -28 11 -37 19 -23 20 -128 57 -180 63 -31 4 -40 8 -30 15 9 6 3 7 -21 3 -26 -5 -31 -4 -20 4 13 9 13 11 -2 11 -9 0 -18 -5 -20 -11 -3 -8 -20 -9 -58 -3 -49 7 -52 8 -25 14 25 5 20 8 -32 14 -82 10 -166 -5 -157 -28 4 -10 -11 -13 -65 -12 -43 0 -76 -5 -83 -12 -16 -16 -42 -16 -32 0 5 8 2 9 -10 5 -10 -4 -19 -7 -22 -7 -2 0 -1 -7 2 -15 4 -10 0 -15 -11 -15 -9 0 -29 -9 -45 -20 -15 -11 -30 -16 -34 -13 -4 4 -4 0 -1 -8 3 -9 2 -34 -3 -57 -6 -23 -6 -40 -2 -37 11 7 33 -22 25 -35 -4 -6 -3 -10 2 -9 20 3 34 -2 28 -11 -3 -5 0 -7 9 -4 8 3 23 1 33 -6 16 -9 15 -10 -7 -5 -18 4 -21 3 -10 -3 8 -6 35 -12 60 -16 32 -4 38 -3 20 3 -29 10 -6 14 28 4 18 -4 21 -8 10 -15 -8 -6 1 -7 27 -3 30 4 36 3 25 -5 -11 -8 -5 -9 25 -5 23 3 33 2 22 -3 -14 -6 -8 -10 28 -20 26 -7 51 -9 57 -6 6 4 8 2 5 -3 -8 -13 50 -36 66 -26 5 3 7 1 4 -4 -8 -13 20 -26 35 -16 6 3 8 1 5 -4 -8 -13 20 -26 35 -16 6 3 8 2 5 -4 -6 -10 132 -90 148 -84 6 1 7 -1 3 -4 -9 -9 39 -48 50 -41 4 2 14 0 22 -6 12 -8 11 -9 -4 -4 -16 6 -17 4 -6 -9 7 -8 20 -14 29 -13 8 2 16 -4 16 -12 0 -8 7 -15 15 -15 8 0 16 -4 17 -9 2 -15 56 -65 64 -60 4 2 11 -1 15 -7 5 -8 3 -9 -7 -4 -12 8 -12 6 0 -8 7 -9 17 -15 21 -12 4 3 14 -3 21 -12 12 -14 12 -16 0 -9 -8 5 -12 5 -10 0 8 -19 85 -117 124 -158 22 -23 37 -37 33 -32 -16 21 -7 28 12 11 12 -10 19 -24 16 -31 -5 -14 47 -67 57 -57 4 3 7 1 7 -5 0 -7 6 -12 14 -12 8 0 18 -5 22 -12 5 -7 3 -8 -6 -3 -9 5 -11 4 -6 -4 4 -6 12 -9 17 -6 5 4 20 -5 33 -18 14 -14 27 -22 30 -19 3 3 6 0 6 -6 0 -7 7 -12 15 -12 8 0 15 -4 15 -8 0 -8 5 -9 106 -18 50 -5 69 -2 102 15 76 39 188 69 298 80 91 10 124 9 199 -4 50 -9 97 -17 105 -19 8 -1 35 -11 60 -23 25 -11 56 -24 69 -28 28 -9 115 -63 149 -93 13 -12 37 -24 53 -27 20 -5 39 -20 56 -46 21 -32 28 -37 43 -29 23 13 43 13 36 1 -4 -5 3 -7 15 -4 15 4 17 8 8 14 -10 6 -9 10 6 15 11 4 30 16 43 28 18 16 25 17 31 8 6 -10 11 -10 21 3 7 8 17 15 23 15 5 0 2 -10 -9 -22 l-19 -23 22 19 c13 10 20 23 17 27 -6 11 45 61 56 54 4 -2 18 8 31 23 18 20 19 23 4 12 -11 -8 -23 -19 -27 -25 -4 -5 -8 -6 -8 -2 0 12 54 77 64 77 5 0 2 -8 -5 -17 -13 -16 -12 -17 3 -4 10 7 16 17 13 21 -2 4 2 16 10 26 22 29 18 53 -10 60 -26 6 -32 18 -15 29 6 3 10 30 10 60 0 100 49 173 145 216 39 18 75 24 169 29 l118 5 -56 50 c-83 73 -129 156 -101 182 7 7 16 9 20 5 4 -4 12 0 18 9 18 23 47 31 53 15 3 -8 18 -16 35 -20 23 -4 29 -11 29 -32 0 -30 14 -51 108 -163 54 -63 71 -92 77 -124 3 -23 14 -62 24 -86 l18 -45 19 22 c24 28 33 28 28 0 -2 -13 -1 -16 2 -8 4 8 16 29 27 45 l21 30 -25 -19 c-13 -11 -7 -3 14 17 35 34 49 56 27 42 -5 -3 -5 8 2 26 7 19 13 27 18 19 5 -8 9 -5 13 9 3 14 1 19 -6 14 -7 -4 -8 0 -4 11 4 10 7 20 7 22 0 3 3 3 8 1 10 -7 13 34 14 198 1 133 0 143 -26 202 -41 89 -51 96 -153 99 -88 3 -117 -5 -106 -32 4 -11 -4 -14 -38 -14 -77 2 -260 -20 -324 -38 -17 -5 -35 -20 -43 -35 -14 -29 -38 -38 -92 -34 -28 2 -34 -1 -32 -15 2 -11 -5 -18 -20 -20 -15 -2 -24 -11 -26 -26 -3 -19 -8 -23 -25 -18 -13 3 -31 -2 -42 -12 -23 -18 -58 -96 -48 -106 3 -3 1 -12 -6 -19 -13 -17 -4 -100 15 -139 23 -44 15 -46 -11 -3 -44 70 -27 214 32 276 24 26 24 27 9 79 -10 34 -12 58 -6 69 8 14 9 13 8 -4 -2 -23 20 -94 35 -112 17 -22 30 -14 23 13 -6 24 -5 26 18 22 20 -4 26 -1 26 13 0 16 8 19 55 19 48 0 57 3 64 23 5 12 6 25 2 29 -8 9 -116 28 -158 28 -19 0 -36 6 -38 13 -3 6 -7 75 -9 152 -2 100 -8 154 -21 188 -9 26 -15 50 -12 53 2 3 13 -25 23 -61 19 -65 35 -80 52 -47 11 19 -17 166 -43 227 -8 21 -13 46 -10 57 9 27 -3 40 -26 28 -13 -7 -19 -7 -19 0 0 5 -9 10 -20 10 -22 0 -26 -20 -9 -51 6 -11 8 -25 6 -32 -3 -7 -12 16 -22 49 -17 59 -20 62 -66 83 -59 25 -58 25 -65 6z m195 -245 c0 -17 -23 33 -33 71 -3 13 3 6 14 -16 11 -22 19 -47 19 -55z m-1143 -137 c-5 -5 -36 62 -36 76 1 3 10 -11 21 -32 11 -22 18 -41 15 -44z m-1196 -113 c0 -5 -12 -10 -26 -10 -14 0 -23 4 -19 10 3 6 15 10 26 10 10 0 19 -4 19 -10z m2439 -903 c0 -21 -1 -21 -9 -2 -12 28 -12 37 0 30 6 -3 10 -16 9 -28z m-1679 -79 c0 -13 -5 -9 -31 19 l-24 26 27 -19 c15 -10 28 -22 28 -26z"/>
 <path fill="#8d6d43" d="M2961 3053 c0 -6 -4 -20 -7 -30 -5 -14 -4 -15 5 -7 7 7 11 20 8 30 -3 11 -5 14 -6 7z"/>
 <path fill="#8d6d43" d="M3299 3022 c7 -12 17 -20 22 -16 6 3 9 7 7 8 -2 1 -12 8 -22 16 -18 14 -19 14 -7 -8z"/>
 <path fill="#8d6d43" d="M2650 2997 c0 -3 18 -36 40 -73 44 -75 80 -163 80 -195 0 -13 11 -25 32 -34 39 -16 47 -12 44 18 -6 55 -147 280 -178 285 -10 2 -18 1 -18 -1z"/>
 <path fill="#8d6d43" d="M1753 2920 c-5 -22 -7 -37 -2 -35 9 6 23 64 17 70 -2 3 -9 -13 -15 -35z"/>
 <path fill="#8d6d43" d="M2957 2905 c3 -47 0 -68 -15 -97 -11 -21 -15 -35 -10 -32 30 19 48 122 28 169 -5 12 -6 -4 -3 -40z"/>
 <path fill="#8d6d43" d="M3786 2755 c6 -15 3 -16 -49 -20 -15 -1 -31 -6 -35 -10 -4 -5 1 -5 11 -2 9 4 17 3 17 -2 0 -11 104 -20 168 -13 40 3 52 8 48 18 -4 11 1 10 19 -2 14 -9 25 -12 25 -8 0 5 -14 17 -31 26 -16 10 -27 13 -23 7 4 -7 1 -10 -7 -7 -8 3 -13 11 -11 17 1 8 -3 9 -15 2 -11 -5 -36 -6 -63 -1 -60 12 -60 12 -54 -5z"/>
 <path fill="#8d6d43" d="M2896 2732 c-4 -7 -16 -12 -26 -12 -13 0 -17 -5 -14 -15 4 -8 12 -15 19 -15 17 0 38 26 33 42 -3 9 -6 9 -12 0z"/>
 <path fill="#8d6d43" d="M1773 2665 c0 -27 2 -38 4 -22 2 15 2 37 0 50 -2 12 -4 0 -4 -28z"/>
 <path fill="#8d6d43" d="M3488 2643 c12 -2 30 -2 40 0 9 3 -1 5 -23 4 -22 0 -30 -2 -17 -4z"/>
 <path fill="#8d6d43" d="M3630 2544 c0 -40 20 -61 64 -70 52 -9 142 22 164 57 11 17 9 20 -10 28 -13 4 -67 11 -120 13 l-98 5 0 -33z"/>
 <path fill="#8d6d43" d="M3475 2563 c-98 -7 -95 -4 -95 -88 0 -85 -12 -75 115 -94 96 -14 125 -16 161 -7 29 6 32 11 32 46 1 32 -3 39 -23 44 -21 5 -78 61 -86 84 -5 14 -43 19 -104 15z"/>
 <path fill="#8d6d43" d="M1738 2490 c-2 -6 -19 -15 -38 -20 -29 -7 -31 -8 -9 -9 27 -1 68 23 58 34 -4 3 -9 1 -11 -5z"/>
 <path fill="#8d6d43" d="M3856 2439 c-14 -11 -26 -25 -26 -30 0 -15 26 -10 40 6 11 13 15 13 21 3 11 -18 34 5 26 26 -9 22 -29 20 -61 -5z"/>
 <path fill="#8d6d43" d="M3641 1862 c-70 -20 -124 -72 -139 -135 -17 -64 -15 -132 3 -151 20 -19 19 -25 -7 -54 l-23 -25 32 17 c18 9 40 16 50 16 15 0 16 2 3 11 -12 8 -11 9 5 6 11 -2 19 -9 18 -15 -4 -18 77 -15 91 3 8 11 20 14 43 9 18 -4 30 -10 27 -15 -3 -5 5 -9 16 -9 16 0 20 5 16 15 -5 13 1 17 24 17 3 1 18 -2 33 -6 21 -5 27 -4 21 5 -4 8 -3 9 5 5 16 -10 53 3 45 16 -4 6 -2 8 3 5 13 -8 99 28 96 40 -1 4 1 10 4 13 4 3 3 -1 -1 -7 -5 -9 0 -13 14 -13 12 0 25 -9 30 -22 18 -41 -1 104 -20 153 -28 75 -64 115 -115 128 -63 16 -210 12 -274 -7z"/>
 <path fill="#8d6d43" d="M4105 1678 c-11 -27 -2 -49 14 -38 12 7 12 14 4 32 -9 20 -12 21 -18 6z"/>
 <path fill="#8d6d43" d="M2388 1522 c-21 -2 -28 -9 -28 -25 0 -20 5 -22 43 -22 34 1 41 4 39 18 -2 14 5 17 38 17 22 0 40 5 40 11 0 9 -59 10 -132 1z"/>
 <path fill="#8d6d43" d="M2580 1512 c0 -7 63 -23 155 -39 52 -9 15 15 -50 31 -65 18 -105 20 -105 8z"/>
 <path fill="#8d6d43" d="M2260 1500 c-15 -9 -15 -9 34 -24 9 -3 12 2 9 15 -6 21 -20 24 -43 9z"/>
 <path fill="#8d6d43" d="M2810 1453 c0 -11 91 -65 98 -58 3 3 -1 12 -9 20 -18 18 -89 48 -89 38z"/>
 <path fill="#8d6d43" d="M2393 1425 c-56 -9 -99 -22 -135 -42 -40 -23 -61 -29 -87 -25 -24 3 -32 1 -27 -7 14 -22 96 -12 150 18 35 20 72 31 119 36 62 7 89 17 70 28 -5 2 -45 -2 -90 -8z"/>
 <path fill="#8d6d43" d="M2036 1393 c-12 -12 -6 -33 9 -33 8 0 15 6 15 14 0 17 -14 28 -24 19z"/>
 <path fill="#8d6d43" d="M2074 1385 c-4 -9 -2 -21 5 -28 16 -16 14 -32 -4 -17 -19 15 -38 3 -32 -21 3 -11 1 -17 -4 -13 -5 3 -9 14 -9 26 0 17 -2 19 -16 7 -16 -13 -12 -52 8 -77 14 -16 53 -38 45 -25 -3 5 1 23 10 39 18 36 27 110 13 119 -6 3 -13 -1 -16 -10z"/>
 <path fill="#8d6d43" d="M2630 1392 c0 -5 23 -18 51 -28 35 -13 60 -31 77 -54 l26 -35 -29 27 c-29 26 -97 48 -140 47 -11 -1 6 -7 37 -14 32 -6 73 -24 92 -39 19 -14 39 -26 44 -26 5 0 16 -8 23 -17 12 -16 12 -17 -1 -8 -9 6 -7 2 3 -7 11 -10 24 -18 31 -18 6 0 4 5 -4 11 -12 9 -12 10 3 5 10 -3 26 -6 35 -7 14 0 13 -2 -3 -10 -14 -6 4 -8 58 -5 70 4 80 2 98 -17 l21 -22 -16 33 c-14 27 -21 32 -39 27 -17 -5 -19 -4 -7 4 12 8 9 16 -20 46 -36 38 -85 67 -153 91 -47 17 -187 28 -187 16z m281 -78 c9 -11 10 -20 2 -32 -15 -24 -44 -27 -59 -7 -28 38 27 75 57 39z"/>
 <path fill="#8d6d43" d="M2560 1382 c0 -13 38 -23 46 -11 3 5 1 9 -5 9 -5 0 -16 3 -25 6 -9 3 -16 2 -16 -4z"/>
 <path fill="#8d6d43" d="M2332 1358 c-13 -13 -16 -28 -4 -28 4 0 18 9 32 20 23 18 24 20 5 20 -12 0 -26 -5 -33 -12z"/>
 <path fill="#8d6d43" d="M2953 1355 c-10 -11 -7 -19 19 -40 28 -24 32 -25 41 -10 6 12 3 23 -14 41 -26 28 -30 28 -46 9z"/>
 <path fill="#8d6d43" d="M2512 1334 c-17 -14 -37 -35 -43 -47 -6 -14 -2 -12 12 7 12 16 41 37 63 47 26 12 34 19 21 19 -11 0 -35 -12 -53 -26z"/>
 <path fill="#8d6d43" d="M2365 1339 c-4 -6 -17 -14 -29 -19 -20 -8 -20 -9 5 -9 14 -1 30 -6 37 -13 9 -9 12 -5 12 20 0 32 -13 42 -25 21z"/>
 <path fill="#8d6d43" d="M2250 1329 c0 -7 -8 -18 -17 -26 -17 -14 -17 -14 0 -9 10 3 33 7 50 7 18 1 24 3 15 6 -10 2 -18 11 -18 19 0 8 -7 14 -15 14 -8 0 -15 -5 -15 -11z"/>
 <path fill="#8d6d43" d="M3235 1300 c-21 -23 -8 -27 20 -7 11 8 14 16 8 20 -6 4 -18 -2 -28 -13z"/>
 <path fill="#8d6d43" d="M2162 1303 c-7 -2 -17 -14 -23 -26 -11 -21 -10 -20 15 2 14 14 26 26 26 28 0 3 0 3 -18 -4z"/>
 <path fill="#8d6d43" d="M3041 1271 c-10 -7 -6 -22 19 -72 32 -63 32 -64 26 -23 -9 62 -29 104 -45 95z"/>
 <path fill="#8d6d43" d="M2174 1256 c-3 -8 -13 -12 -22 -9 -15 4 -15 3 -2 -7 11 -9 12 -13 3 -17 -20 -7 -15 -22 6 -20 14 1 20 10 23 34 4 35 1 42 -8 19z"/>
 <path fill="#8d6d43" d="M3124 1245 c-3 -8 -1 -27 4 -42 l10 -28 1 31 c1 16 6 35 13 42 9 9 8 12 -5 12 -10 0 -20 -7 -23 -15z"/>
 <path fill="#8d6d43" d="M2097 1235 c-4 -8 -2 -17 3 -20 6 -4 10 -4 10 -1 0 2 3 11 6 20 3 9 2 16 -4 16 -5 0 -12 -7 -15 -15z"/>
 <path fill="#8d6d43" d="M3054 1159 c2 -10 -4 -33 -15 -53 -10 -20 -19 -38 -19 -41 0 -3 34 -5 75 -5 61 0 76 3 84 18 7 12 4 24 -11 42 -21 24 -21 24 -15 3 4 -20 1 -23 -21 -23 -44 0 -71 11 -65 25 2 8 -1 22 -7 32 -9 14 -10 14 -6 2z"/>
 <path fill="#8d6d43" d="M3093 1028 c-16 -21 -23 -47 -14 -53 5 -3 7 -14 4 -25 -8 -30 25 -26 37 5 5 14 15 25 21 25 8 0 7 5 -2 17 -12 15 -12 16 6 10 16 -6 15 -3 -5 13 -30 23 -34 24 -47 8z"/>
 </g>
<g id="layer104">
 <path fill="#c5953c" d="M3129 3047 c-15 -20 -18 -20 -40 -6 -32 20 -59 13 -59 -16 0 -30 -20 -46 -50 -38 -20 5 -22 4 -15 -13 21 -51 26 -93 17 -125 -22 -74 -38 -107 -86 -173 -37 -53 -46 -73 -39 -85 7 -12 4 -26 -13 -52 l-23 -36 24 -94 c24 -97 37 -199 25 -199 -3 0 -12 34 -19 75 -12 74 -31 110 -31 61 0 -14 -4 -26 -10 -26 -5 0 -10 26 -10 58 0 31 -11 132 -24 223 -25 171 -47 238 -118 350 -45 71 -51 75 -98 76 -76 2 -107 -6 -113 -28 -4 -16 -11 -18 -31 -13 -19 4 -26 2 -26 -9 0 -8 -12 -22 -26 -32 -18 -11 -23 -22 -19 -33 14 -33 22 -207 12 -242 -5 -19 -10 -42 -11 -50 -4 -28 -18 -75 -32 -107 -19 -42 -18 -63 6 -134 12 -34 19 -66 17 -73 -4 -10 -10 0 -36 67 -14 37 -32 35 -24 -3 3 -17 1 -30 -4 -30 -11 0 -23 46 -23 85 0 34 -47 192 -76 255 -14 30 -46 99 -72 152 -45 93 -48 97 -89 107 -62 16 -84 14 -76 -5 5 -14 0 -16 -30 -12 -26 3 -37 0 -37 -9 0 -9 -6 -10 -25 -3 -18 7 -25 6 -26 -3 -1 -6 -2 -19 -3 -27 -1 -9 -11 -15 -28 -15 -33 1 -32 3 -12 -65 12 -41 15 -80 11 -160 -3 -58 -8 -116 -11 -130 -3 -14 -8 -38 -11 -55 -4 -16 -15 -47 -26 -67 -23 -43 -22 -46 50 -141 24 -32 40 -61 36 -65 -4 -4 -13 1 -20 11 -9 12 -15 15 -20 7 -4 -7 -16 1 -31 21 -37 51 -157 162 -172 160 -7 -1 -26 9 -43 23 -17 15 -43 29 -57 32 -15 4 -34 13 -42 20 -8 7 -27 17 -43 23 -24 9 -27 8 -27 -10 0 -19 -4 -21 -32 -15 -39 8 -45 13 -30 28 7 7 12 15 12 19 0 14 -65 29 -140 33 -41 2 -99 9 -129 15 -30 6 -57 7 -60 3 -3 -5 -22 -10 -41 -10 -82 -3 -205 -15 -210 -21 -3 -3 -18 -13 -35 -21 -17 -9 -31 -25 -33 -38 -2 -13 -10 -22 -21 -22 -9 0 -30 -13 -45 -29 l-28 -29 26 -35 c28 -37 23 -35 226 -82 186 -43 462 -192 609 -329 81 -75 214 -246 140 -180 -15 14 -13 6 9 -26 17 -25 45 -58 63 -75 31 -29 31 -28 -6 18 -21 26 -36 50 -33 52 7 7 173 -176 173 -189 0 -6 9 -11 20 -11 11 0 19 -5 18 -11 -1 -7 5 -11 15 -10 9 0 16 -5 14 -12 -1 -8 2 -11 7 -7 6 3 18 1 28 -4 42 -24 98 -41 135 -41 34 0 141 38 200 70 35 19 147 38 232 39 188 2 346 -42 481 -135 33 -23 79 -51 102 -62 22 -12 52 -36 66 -53 19 -25 28 -29 43 -22 10 5 42 21 71 36 29 15 58 24 66 21 8 -3 34 18 63 49 145 159 152 168 129 187 -8 6 -19 9 -25 5 -5 -3 -10 2 -10 13 0 11 -7 33 -15 48 -8 16 -15 36 -15 44 0 9 -4 20 -9 25 -5 6 -21 44 -36 85 -14 41 -40 97 -57 123 -19 29 -31 62 -31 80 0 18 -4 37 -9 44 -5 7 -5 14 1 17 5 3 12 24 16 46 4 22 11 42 16 46 5 3 9 13 9 23 0 10 11 28 24 40 24 22 24 24 10 64 -17 47 -11 127 9 127 9 0 12 36 11 133 -1 113 -5 143 -27 212 -51 157 -94 276 -103 284 -5 4 -27 15 -49 23 -38 15 -41 15 -56 -5z"/>
 <path fill="#c5953c" d="M3270 2986 c0 -8 5 -18 10 -21 6 -3 10 -16 10 -29 0 -12 4 -26 9 -31 5 -6 25 -62 44 -125 19 -63 39 -116 44 -117 4 -2 13 5 19 14 14 23 -17 179 -46 235 -11 21 -20 48 -20 60 0 16 -3 18 -14 9 -10 -9 -15 -8 -20 4 -7 19 -36 20 -36 1z"/>
 <path fill="#c5953c" d="M2660 2987 c0 -2 20 -39 45 -82 39 -70 75 -162 75 -194 0 -6 6 -11 14 -11 8 0 22 -3 32 -7 13 -5 16 -3 11 10 -3 9 -2 19 3 22 19 11 -139 265 -165 265 -8 0 -15 -1 -15 -3z"/>
 <path fill="#c5953c" d="M2113 2893 c-21 -4 -20 -8 33 -116 50 -101 58 -112 81 -110 35 3 38 8 23 42 -6 16 -9 35 -5 41 3 6 1 9 -7 8 -7 -2 -12 5 -12 14 1 10 -2 15 -7 13 -10 -7 -31 30 -22 39 3 3 2 6 -4 6 -5 0 -18 16 -29 35 -10 19 -21 34 -24 34 -3 -1 -15 -4 -27 -6z"/>
 <path fill="#c5953c" d="M3835 2755 c-113 -28 -111 -45 5 -45 81 0 110 9 88 27 -13 10 -75 22 -93 18z"/>
 <path fill="#c5953c" d="M2878 2723 c-22 -5 -24 -33 -3 -33 8 0 19 9 25 20 11 20 9 21 -22 13z"/>
 <path fill="#c5953c" d="M2322 2690 c-10 -17 -10 -20 3 -20 8 0 15 9 15 20 0 11 -1 20 -3 20 -1 0 -8 -9 -15 -20z"/>
 <path fill="#c5953c" d="M3397 2552 c-16 -3 -17 -13 -15 -75 l3 -72 40 -7 c22 -3 68 -11 103 -18 35 -6 83 -8 107 -5 40 7 43 9 47 42 4 31 1 36 -28 48 -18 7 -45 32 -60 55 l-28 41 -75 -3 c-42 -2 -84 -4 -94 -6z"/>
 <path fill="#c5953c" d="M3644 2535 c3 -11 6 -26 6 -32 0 -7 5 -13 10 -13 6 0 10 6 10 14 0 10 7 12 22 8 21 -5 21 -6 2 -13 -33 -12 9 -22 62 -14 44 6 113 55 89 61 -6 2 -54 4 -108 6 -95 4 -98 3 -93 -17z"/>
 <path fill="#c5953c" d="M3847 2432 c-22 -24 -21 -31 1 -25 24 6 48 43 29 43 -8 0 -21 -8 -30 -18z"/>
 <path fill="#c5953c" d="M3895 2429 c-4 -6 -5 -13 -2 -16 7 -7 27 6 27 18 0 12 -17 12 -25 -2z"/>
 <path fill="#c5953c" d="M4010 2432 c-6 -2 -10 -12 -10 -22 0 -15 -13 -19 -97 -25 -54 -4 -102 -9 -106 -12 -4 -2 -34 -6 -67 -7 -32 -1 -65 -8 -73 -14 -8 -7 -22 -9 -31 -6 -12 5 -20 -2 -28 -24 -14 -37 -41 -50 -90 -44 -30 3 -36 1 -35 -15 2 -13 -4 -18 -20 -17 -16 0 -24 -7 -28 -27 -6 -24 -10 -27 -29 -20 -28 11 -58 -18 -75 -74 -7 -22 -15 -47 -18 -55 -12 -32 0 -106 24 -154 14 -28 33 -73 43 -101 10 -27 27 -70 38 -95 11 -25 23 -57 26 -72 11 -47 26 -31 26 25 0 75 36 143 97 184 64 42 119 56 231 56 50 0 92 1 92 2 0 1 -33 36 -73 77 -59 59 -75 82 -80 113 -6 38 6 61 25 49 4 -3 16 4 28 16 24 24 46 26 54 4 3 -8 10 -13 15 -10 19 12 41 -7 41 -34 0 -28 35 -80 133 -196 37 -44 57 -77 57 -93 0 -31 16 -90 30 -111 9 -12 17 -7 50 30 86 97 124 217 124 390 -1 116 -3 130 -29 188 -31 69 -70 109 -90 92 -6 -5 -15 -7 -18 -3 -7 6 -119 11 -137 5z"/>
 <path fill="#c5953c" d="M2810 2406 c0 -8 5 -18 10 -21 6 -3 10 1 10 9 0 8 -4 18 -10 21 -5 3 -10 -1 -10 -9z"/>
 <path fill="#c5953c" d="M3350 2355 c0 -38 28 -125 41 -125 5 0 9 12 9 26 0 23 3 25 24 20 18 -4 23 -2 22 12 -1 14 6 17 39 15 60 -3 85 5 85 27 0 22 -32 32 -147 47 l-73 9 0 -31z"/>
 <path fill="#c5953c" d="M1440 1905 c19 -19 36 -35 39 -35 3 0 -10 16 -29 35 -19 19 -36 35 -39 35 -3 0 10 -16 29 -35z"/>
 <path fill="#c5953c" d="M3662 1864 c-29 -7 -66 -21 -82 -29 -45 -23 -79 -91 -87 -170 -6 -64 -5 -68 22 -92 26 -25 33 -26 134 -25 149 1 195 9 286 53 126 59 121 53 95 130 -28 86 -65 124 -130 138 -69 15 -174 13 -238 -5z"/>
 <path fill="#c5953c" d="M4106 1666 c-8 -32 -5 -38 10 -28 6 4 8 18 4 32 l-6 25 -8 -29z"/>
 <path fill="#c5953c" d="M4025 1627 c-17 -13 -17 -14 4 -20 16 -4 21 -1 21 14 0 23 -1 23 -25 6z"/>
 <path fill="#c5953c" d="M3500 1525 c-16 -19 -3 -19 30 0 24 13 24 14 4 15 -12 0 -27 -7 -34 -15z"/>
 <path fill="#c5953c" d="M2030 1374 c0 -17 22 -14 28 4 2 7 -3 12 -12 12 -9 0 -16 -7 -16 -16z"/>
 <path fill="#c5953c" d="M2075 1379 c-4 -6 -5 -13 -2 -16 7 -7 27 6 27 18 0 12 -17 12 -25 -2z"/>
 <path fill="#c5953c" d="M2026 1301 c8 -71 21 -76 50 -20 15 30 15 30 -6 19 -24 -13 -35 -6 -44 25 -3 11 -3 0 0 -24z"/>
 <path fill="#c5953c" d="M2047 1334 c-8 -8 1 -24 14 -24 5 0 9 7 9 15 0 15 -12 20 -23 9z"/>
 <path fill="#c5953c" d="M2350 1325 c-18 -10 -20 -14 -8 -15 9 0 23 -3 32 -6 12 -4 16 0 16 15 0 25 -6 25 -40 6z"/>
 <path fill="#c5953c" d="M2226 1301 c-4 -5 12 -7 36 -4 57 8 61 13 10 13 -22 0 -43 -4 -46 -9z"/>
 <path fill="#c5953c" d="M3133 1248 c-5 -7 -6 -24 -2 -38 l7 -25 1 26 c1 14 6 30 13 37 8 8 8 12 1 12 -6 0 -15 -6 -20 -12z"/>
 <path fill="#c5953c" d="M2999 1229 c-8 -5 -9 -9 -2 -9 6 0 19 -7 27 -16 19 -18 21 -6 3 18 -9 11 -18 14 -28 7z"/>
 <path fill="#c5953c" d="M3173 1103 c5 -7 -17 -10 -65 -7 -68 3 -87 -3 -88 -27 0 -8 36 -9 107 -2 50 4 76 24 51 39 -6 4 -8 3 -5 -3z"/>
 <path fill="#c5953c" d="M3104 1022 c-6 -4 -13 -15 -17 -24 -5 -14 -1 -18 18 -18 26 0 28 4 17 32 -4 10 -12 14 -18 10z"/>
 </g>
<g id="layer105">
 <path fill="#ba9d74" d="M3129 3047 c-15 -20 -18 -20 -40 -6 -32 20 -59 13 -59 -16 0 -30 -20 -46 -50 -38 -20 5 -22 4 -15 -13 21 -51 26 -93 17 -125 -22 -74 -38 -107 -86 -173 -37 -53 -46 -73 -39 -85 7 -12 4 -26 -13 -52 l-23 -36 24 -94 c24 -97 37 -199 25 -199 -3 0 -12 34 -19 75 -12 74 -31 110 -31 61 0 -14 -4 -26 -10 -26 -5 0 -10 26 -10 58 0 31 -11 132 -24 223 -25 171 -47 238 -118 350 -45 71 -51 75 -98 76 -76 2 -107 -6 -113 -28 -4 -16 -11 -18 -31 -13 -19 4 -26 2 -26 -9 0 -8 -12 -22 -26 -32 -18 -11 -23 -22 -19 -33 14 -33 22 -207 12 -242 -5 -19 -10 -42 -11 -50 -4 -28 -18 -75 -32 -107 -19 -42 -18 -63 6 -134 12 -34 19 -66 17 -73 -4 -10 -10 0 -36 67 -14 37 -32 35 -24 -3 3 -17 1 -30 -4 -30 -11 0 -23 46 -23 85 0 34 -47 192 -76 255 -14 30 -46 99 -72 152 -45 93 -48 97 -89 107 -62 16 -84 14 -76 -5 5 -14 0 -16 -30 -12 -26 3 -37 0 -37 -9 0 -9 -6 -10 -25 -3 -18 7 -25 6 -26 -3 -1 -6 -2 -19 -3 -27 -1 -9 -11 -15 -28 -15 -33 1 -32 3 -12 -65 12 -41 15 -80 11 -160 -3 -58 -8 -116 -11 -130 -3 -14 -8 -38 -11 -55 -4 -16 -15 -47 -26 -67 -23 -43 -22 -46 50 -141 24 -32 40 -61 36 -65 -4 -4 -13 1 -20 11 -9 12 -15 15 -20 7 -4 -7 -16 1 -31 21 -37 51 -157 162 -172 160 -7 -1 -26 9 -43 23 -17 15 -43 29 -57 32 -15 4 -34 13 -42 20 -8 7 -27 17 -43 23 -24 9 -27 8 -27 -10 0 -19 -4 -21 -32 -15 -39 8 -45 13 -30 28 7 7 12 15 12 19 0 14 -65 29 -140 33 -41 2 -99 9 -129 15 -30 6 -57 7 -60 3 -3 -5 -22 -10 -41 -10 -82 -3 -205 -15 -210 -21 -3 -3 -18 -13 -35 -21 -17 -9 -31 -25 -33 -38 -2 -13 -10 -22 -21 -22 -9 0 -30 -13 -45 -29 l-28 -29 26 -35 c28 -37 23 -35 226 -82 186 -43 462 -192 609 -329 81 -75 214 -246 140 -180 -15 14 -13 6 9 -26 17 -25 45 -58 63 -75 31 -29 31 -28 -6 18 -21 26 -36 50 -33 52 7 7 173 -176 173 -189 0 -6 9 -11 20 -11 11 0 19 -5 18 -11 -1 -7 5 -11 15 -10 9 0 16 -5 14 -12 -1 -8 2 -11 7 -7 6 3 18 1 28 -4 42 -24 98 -41 135 -41 34 0 141 38 200 70 35 19 147 38 232 39 188 2 346 -42 481 -135 33 -23 79 -51 102 -62 22 -12 52 -36 66 -53 19 -25 28 -29 43 -22 10 5 42 21 71 36 29 15 58 24 66 21 8 -3 34 18 63 49 145 159 152 168 129 187 -8 6 -19 9 -25 5 -5 -3 -10 2 -10 13 0 11 -7 33 -15 48 -8 16 -15 36 -15 44 0 9 -4 20 -9 25 -5 6 -21 44 -36 85 -14 41 -40 97 -57 123 -19 29 -31 62 -31 80 0 18 -4 37 -9 44 -5 7 -5 14 1 17 5 3 12 24 16 46 4 22 11 42 16 46 5 3 9 13 9 23 0 10 11 28 24 40 24 22 24 24 10 64 -17 47 -11 127 9 127 9 0 12 36 11 133 -1 113 -5 143 -27 212 -51 157 -94 276 -103 284 -5 4 -27 15 -49 23 -38 15 -41 15 -56 -5z"/>
 <path fill="#ba9d74" d="M3270 2986 c0 -8 5 -18 10 -21 6 -3 10 -16 10 -29 0 -12 4 -26 9 -31 5 -6 25 -62 44 -125 19 -63 39 -116 44 -117 4 -2 13 5 19 14 14 23 -17 179 -46 235 -11 21 -20 48 -20 60 0 16 -3 18 -14 9 -10 -9 -15 -8 -20 4 -7 19 -36 20 -36 1z"/>
 <path fill="#ba9d74" d="M2660 2987 c0 -2 20 -39 45 -82 39 -70 75 -162 75 -194 0 -6 6 -11 14 -11 8 0 22 -3 32 -7 13 -5 16 -3 11 10 -3 9 -2 19 3 22 19 11 -139 265 -165 265 -8 0 -15 -1 -15 -3z"/>
 <path fill="#ba9d74" d="M2113 2893 c-21 -4 -20 -8 33 -116 50 -101 58 -112 81 -110 35 3 38 8 23 42 -6 16 -9 35 -5 41 3 6 1 9 -7 8 -7 -2 -12 5 -12 14 1 10 -2 15 -7 13 -10 -7 -31 30 -22 39 3 3 2 6 -4 6 -5 0 -18 16 -29 35 -10 19 -21 34 -24 34 -3 -1 -15 -4 -27 -6z"/>
 <path fill="#ba9d74" d="M3835 2755 c-113 -28 -111 -45 5 -45 81 0 110 9 88 27 -13 10 -75 22 -93 18z"/>
 <path fill="#ba9d74" d="M2878 2723 c-22 -5 -24 -33 -3 -33 8 0 19 9 25 20 11 20 9 21 -22 13z"/>
 <path fill="#ba9d74" d="M2322 2690 c-10 -17 -10 -20 3 -20 8 0 15 9 15 20 0 11 -1 20 -3 20 -1 0 -8 -9 -15 -20z"/>
 <path fill="#ba9d74" d="M3397 2552 c-16 -3 -17 -13 -15 -75 l3 -72 40 -7 c22 -3 68 -11 103 -18 35 -6 83 -8 107 -5 40 7 43 9 47 42 4 31 1 36 -28 48 -18 7 -45 32 -60 55 l-28 41 -75 -3 c-42 -2 -84 -4 -94 -6z"/>
 <path fill="#ba9d74" d="M3644 2535 c3 -11 6 -26 6 -32 0 -7 5 -13 10 -13 6 0 10 6 10 14 0 10 7 12 22 8 21 -5 21 -6 2 -13 -33 -12 9 -22 62 -14 44 6 113 55 89 61 -6 2 -54 4 -108 6 -95 4 -98 3 -93 -17z"/>
 <path fill="#ba9d74" d="M3847 2432 c-22 -24 -21 -31 1 -25 24 6 48 43 29 43 -8 0 -21 -8 -30 -18z"/>
 <path fill="#ba9d74" d="M3895 2429 c-4 -6 -5 -13 -2 -16 7 -7 27 6 27 18 0 12 -17 12 -25 -2z"/>
 <path fill="#ba9d74" d="M4010 2432 c-6 -2 -10 -12 -10 -22 0 -15 -13 -19 -97 -25 -54 -4 -102 -9 -106 -12 -4 -2 -34 -6 -67 -7 -32 -1 -65 -8 -73 -14 -8 -7 -22 -9 -31 -6 -12 5 -20 -2 -28 -24 -14 -37 -41 -50 -90 -44 -30 3 -36 1 -35 -15 2 -13 -4 -18 -20 -17 -16 0 -24 -7 -28 -27 -6 -24 -10 -27 -29 -20 -28 11 -58 -18 -75 -74 -7 -22 -15 -47 -18 -55 -12 -32 0 -106 24 -154 14 -28 33 -73 43 -101 10 -27 27 -70 38 -95 11 -25 23 -57 26 -72 11 -47 26 -31 26 25 0 75 36 143 97 184 64 42 119 56 231 56 50 0 92 1 92 2 0 1 -33 36 -73 77 -59 59 -75 82 -80 113 -6 38 6 61 25 49 4 -3 16 4 28 16 24 24 46 26 54 4 3 -8 10 -13 15 -10 19 12 41 -7 41 -34 0 -28 35 -80 133 -196 37 -44 57 -77 57 -93 0 -31 16 -90 30 -111 9 -12 17 -7 50 30 86 97 124 217 124 390 -1 116 -3 130 -29 188 -31 69 -70 109 -90 92 -6 -5 -15 -7 -18 -3 -7 6 -119 11 -137 5z"/>
 <path fill="#ba9d74" d="M2810 2406 c0 -8 5 -18 10 -21 6 -3 10 1 10 9 0 8 -4 18 -10 21 -5 3 -10 -1 -10 -9z"/>
 <path fill="#ba9d74" d="M3350 2355 c0 -38 28 -125 41 -125 5 0 9 12 9 26 0 23 3 25 24 20 18 -4 23 -2 22 12 -1 14 6 17 39 15 60 -3 85 5 85 27 0 22 -32 32 -147 47 l-73 9 0 -31z"/>
 <path fill="#ba9d74" d="M1440 1905 c19 -19 36 -35 39 -35 3 0 -10 16 -29 35 -19 19 -36 35 -39 35 -3 0 10 -16 29 -35z"/>
 <path fill="#ba9d74" d="M3662 1864 c-29 -7 -66 -21 -82 -29 -45 -23 -79 -91 -87 -170 -6 -64 -5 -68 22 -92 26 -25 33 -26 134 -25 149 1 195 9 286 53 126 59 121 53 95 130 -28 86 -65 124 -130 138 -69 15 -174 13 -238 -5z"/>
 <path fill="#ba9d74" d="M4106 1666 c-8 -32 -5 -38 10 -28 6 4 8 18 4 32 l-6 25 -8 -29z"/>
 <path fill="#ba9d74" d="M4025 1627 c-17 -13 -17 -14 4 -20 16 -4 21 -1 21 14 0 23 -1 23 -25 6z"/>
 <path fill="#ba9d74" d="M3500 1525 c-16 -19 -3 -19 30 0 24 13 24 14 4 15 -12 0 -27 -7 -34 -15z"/>
 <path fill="#ba9d74" d="M2030 1374 c0 -17 22 -14 28 4 2 7 -3 12 -12 12 -9 0 -16 -7 -16 -16z"/>
 <path fill="#ba9d74" d="M2075 1379 c-4 -6 -5 -13 -2 -16 7 -7 27 6 27 18 0 12 -17 12 -25 -2z"/>
 <path fill="#ba9d74" d="M2047 1334 c-8 -8 1 -24 14 -24 5 0 9 7 9 15 0 15 -12 20 -23 9z"/>
 <path fill="#ba9d74" d="M2350 1325 c-25 -14 -25 -14 -2 -15 12 0 25 0 30 -1 4 0 8 7 10 15 4 19 -5 20 -38 1z"/>
 <path fill="#ba9d74" d="M2226 1301 c-4 -5 12 -7 36 -4 57 8 61 13 10 13 -22 0 -43 -4 -46 -9z"/>
 <path fill="#ba9d74" d="M3133 1248 c-5 -7 -6 -24 -2 -38 l7 -25 1 26 c1 14 6 30 13 37 8 8 8 12 1 12 -6 0 -15 -6 -20 -12z"/>
 <path fill="#ba9d74" d="M2999 1229 c-8 -5 -9 -9 -2 -9 6 0 19 -7 27 -16 19 -18 21 -6 3 18 -9 11 -18 14 -28 7z"/>
 <path fill="#ba9d74" d="M3173 1103 c4 -6 -21 -9 -66 -8 -65 2 -86 -5 -87 -26 0 -8 36 -9 107 -2 50 4 76 24 51 39 -6 4 -8 3 -5 -3z"/>
 <path fill="#ba9d74" d="M3104 1022 c-6 -4 -13 -15 -17 -24 -5 -14 -1 -18 18 -18 26 0 28 4 17 32 -4 10 -12 14 -18 10z"/>
 </g>
<g id="layer106">
 <path fill="#e7c879" d="M3136 3044 c-3 -9 -6 -28 -6 -42 0 -19 -11 -37 -37 -59 l-37 -32 24 -26 24 -25 -28 -29 c-15 -16 -29 -44 -33 -67 -3 -21 -14 -50 -23 -64 -9 -14 -15 -30 -13 -37 2 -7 -14 -40 -36 -73 -23 -34 -41 -65 -41 -69 0 -5 -7 -14 -15 -21 -10 -8 -16 -29 -15 -54 0 -23 0 -65 0 -93 1 -29 -4 -53 -9 -53 -6 0 -11 -26 -13 -57 l-3 -58 -19 38 c-10 21 -26 42 -36 47 -14 7 -18 29 -23 111 -8 132 -34 306 -58 389 -11 36 -43 106 -73 155 -43 72 -58 90 -77 91 -14 1 -41 4 -62 8 -20 4 -37 3 -37 -1 2 -22 28 -102 43 -130 21 -39 22 -76 2 -107 -8 -12 -18 -50 -21 -85 -4 -34 -11 -64 -15 -67 -5 -3 -9 -18 -9 -35 0 -16 -4 -29 -10 -29 -5 0 -10 5 -10 10 0 6 -4 10 -10 10 -5 0 -12 -17 -16 -37 -6 -35 -31 -80 -61 -111 -7 -7 -15 -28 -19 -47 -3 -20 -12 -35 -20 -35 -12 0 -12 -6 1 -37 17 -41 16 -44 -19 -47 -18 -1 -26 -7 -26 -19 0 -10 -4 -15 -10 -12 -5 3 -10 19 -10 34 0 16 -7 34 -15 41 -9 7 -15 29 -15 54 0 93 -47 237 -140 431 -53 109 -74 135 -112 135 -27 0 -29 -3 -26 -32 2 -27 -1 -33 -17 -34 -11 -1 -26 -2 -32 -3 -17 -1 -17 -75 -1 -100 14 -22 -4 -175 -23 -198 -9 -10 -8 -18 5 -31 13 -15 14 -27 7 -67 -5 -27 -7 -63 -4 -79 3 -19 -4 -50 -16 -79 -12 -27 -21 -55 -21 -64 0 -14 -51 -95 -76 -120 -17 -18 -45 -9 -69 22 -13 15 -28 25 -34 21 -6 -4 -19 10 -30 31 -10 21 -29 47 -40 58 -12 11 -40 39 -63 63 -24 24 -66 54 -94 67 -29 13 -55 29 -59 34 -3 6 -13 11 -21 11 -14 0 -15 -17 -10 -125 3 -69 11 -146 17 -173 6 -26 12 -62 15 -80 6 -46 25 -79 93 -164 51 -63 194 -203 208 -203 3 0 15 25 28 56 12 31 30 65 39 75 9 11 30 36 47 57 17 20 34 37 39 37 4 0 10 -35 13 -77 4 -43 11 -91 16 -108 17 -54 41 -170 41 -196 0 -14 5 -41 11 -58 l11 -33 67 5 c41 2 91 14 131 31 101 42 95 34 97 122 1 43 7 97 12 119 5 22 12 54 15 70 2 17 10 44 16 60 12 29 13 28 44 -70 51 -156 60 -187 61 -209 0 -20 6 -21 86 -22 47 -1 118 -7 158 -14 80 -13 91 -9 91 38 0 12 18 59 39 105 22 45 43 94 46 110 4 15 10 29 14 31 4 3 15 -64 25 -147 10 -84 22 -156 27 -162 5 -5 9 -21 9 -37 0 -19 8 -33 28 -45 15 -9 47 -32 71 -50 24 -18 52 -33 61 -33 9 0 25 -9 35 -20 l18 -20 34 20 c19 11 42 20 52 20 39 0 228 182 245 236 3 11 0 28 -9 40 -8 10 -15 27 -15 37 0 19 -21 68 -96 222 -24 50 -49 116 -54 147 -12 62 -3 109 46 255 13 39 24 79 24 89 0 9 7 22 15 28 11 9 15 37 16 126 1 123 -2 135 -85 380 -20 58 -36 106 -36 107 0 3 -87 43 -93 43 -3 0 -8 -7 -11 -16z"/>
 <path fill="#e7c879" d="M2680 2980 c0 -10 51 -99 81 -141 10 -14 29 -48 43 -75 21 -41 25 -44 24 -21 -1 15 -6 27 -10 27 -4 0 -8 7 -8 15 0 18 -28 69 -81 147 -39 57 -49 67 -49 48z"/>
 <path fill="#e7c879" d="M3285 2963 c3 -16 15 -35 25 -43 10 -8 28 -46 39 -85 12 -38 28 -83 36 -100 15 -29 15 -29 9 25 -3 30 -7 63 -7 73 -1 9 -5 17 -10 17 -5 0 -7 7 -3 15 3 8 2 15 -3 15 -4 0 -13 18 -20 40 -7 23 -18 40 -27 40 -8 0 -17 7 -20 15 -11 27 -27 16 -19 -12z"/>
 <path fill="#e7c879" d="M2126 2881 c-3 -5 10 -26 30 -47 19 -22 31 -30 25 -19 -5 11 -10 23 -10 27 -6 32 -34 57 -45 39z"/>
 <path fill="#e7c879" d="M2878 2723 c-20 -5 -24 -18 -9 -28 6 -3 15 4 21 15 6 11 9 19 8 19 -2 -1 -11 -3 -20 -6z"/>
 <path fill="#e7c879" d="M1137 2484 c-4 -4 -58 -7 -120 -7 -61 1 -118 -4 -124 -9 -7 -6 -36 -7 -70 -3 -44 5 -66 2 -88 -9 -17 -9 -36 -16 -42 -16 -43 0 45 -90 107 -109 25 -8 86 -32 135 -52 139 -58 220 -89 233 -89 10 0 42 92 42 120 0 6 18 41 40 77 22 37 40 70 40 73 0 4 -24 10 -52 14 -29 3 -62 9 -73 12 -11 3 -24 2 -28 -2z"/>
 <path fill="#e7c879" d="M4180 2420 c0 -17 -50 -31 -119 -35 -35 -2 -69 -9 -74 -14 -6 -6 -24 -11 -39 -11 -32 0 -35 -7 -11 -25 13 -10 -2 -13 -83 -17 -102 -5 -144 -18 -144 -43 0 -10 -10 -15 -29 -15 -17 0 -33 -4 -36 -10 -3 -5 -17 -10 -29 -10 -30 0 -47 -20 -40 -47 5 -18 0 -21 -51 -26 -31 -3 -62 -11 -69 -17 -8 -5 -20 -8 -28 -5 -8 3 -21 -1 -28 -9 -12 -15 -11 -30 6 -70 6 -16 4 -18 -10 -13 -13 5 -18 0 -23 -24 -3 -17 -12 -33 -19 -36 -17 -6 -11 -110 10 -148 9 -16 16 -38 16 -49 0 -10 10 -34 21 -53 12 -20 25 -49 28 -66 11 -52 31 -45 31 11 0 62 19 108 62 148 57 55 119 76 240 82 l108 5 -64 62 c-48 47 -68 75 -81 114 -19 58 -17 64 19 64 14 0 34 8 45 18 24 23 31 23 45 4 6 -8 23 -16 38 -17 24 -2 27 -6 26 -34 -1 -35 43 -104 117 -184 23 -25 49 -56 58 -68 l15 -24 7 22 c4 12 29 45 57 73 28 29 70 79 95 112 48 65 48 60 28 213 -7 53 -63 152 -87 152 -4 0 -8 -5 -8 -10z"/>
 <path fill="#e7c879" d="M3350 2356 c0 -25 6 -38 25 -50 14 -9 25 -12 25 -6 0 13 -39 90 -45 90 -3 0 -5 -15 -5 -34z"/>
 <path fill="#e7c879" d="M3710 1870 c-90 -16 -143 -43 -174 -88 -27 -38 -30 -50 -31 -120 l0 -77 55 -7 c58 -9 160 -3 275 14 69 10 139 39 183 74 20 17 21 22 11 59 -18 63 -67 124 -108 134 -56 15 -162 20 -211 11z"/>
 <path fill="#e7c879" d="M4185 1861 c-6 -6 -32 -11 -58 -12 -48 -3 -48 -3 -41 -33 9 -40 22 -76 29 -76 10 0 74 75 75 88 0 6 4 12 9 12 5 0 11 7 15 15 6 17 -14 21 -29 6z"/>
 <path fill="#e7c879" d="M4026 1621 c-3 -5 1 -11 9 -15 9 -3 15 0 15 9 0 16 -16 20 -24 6z"/>
 <path fill="#e7c879" d="M2362 1325 c-22 -12 -22 -13 -3 -18 12 -3 22 1 26 11 7 20 4 21 -23 7z"/>
 <path fill="#e7c879" d="M3037 1088 c2 -5 -1 -8 -6 -8 -6 0 -11 -3 -11 -7 0 -5 34 -7 75 -5 41 2 75 7 75 12 0 5 -31 10 -69 12 -38 2 -67 0 -64 -4z"/>
 </g>
<g id="layer107">
 <path fill="#fdf5d4" d="M3135 3041 c-3 -10 -2 -26 1 -36 6 -13 -4 -28 -36 -56 l-44 -39 23 -24 23 -24 -31 -42 c-18 -26 -31 -56 -31 -74 0 -17 -7 -40 -15 -50 -8 -11 -15 -26 -15 -33 0 -8 -18 -41 -40 -74 -22 -33 -40 -69 -40 -80 0 -10 -7 -19 -15 -19 -12 0 -16 -11 -16 -42 1 -24 1 -67 1 -95 1 -29 -4 -53 -9 -53 -6 0 -11 -26 -13 -57 l-3 -58 -19 38 c-10 21 -26 42 -36 47 -14 7 -18 29 -23 111 -8 132 -34 306 -58 389 -11 36 -43 106 -73 155 -43 72 -58 90 -77 91 -14 1 -41 4 -62 8 -20 4 -37 3 -37 -1 2 -22 28 -102 43 -130 18 -34 22 -83 9 -98 -13 -15 -32 -89 -32 -123 0 -17 -4 -34 -10 -37 -5 -3 -10 -19 -10 -36 0 -27 -20 -44 -20 -16 -1 15 -20 -17 -25 -41 -2 -10 -22 -47 -44 -83 -22 -35 -41 -72 -41 -81 0 -10 -7 -18 -15 -18 -14 0 -14 -4 0 -36 18 -45 18 -44 0 -44 -8 0 -24 -9 -34 -19 -22 -22 -31 -18 -31 17 0 14 -7 33 -15 42 -8 9 -17 43 -19 76 -8 111 -43 214 -136 409 -53 109 -74 135 -112 135 -27 0 -29 -3 -26 -32 2 -27 -1 -33 -17 -34 -43 -2 -45 -4 -45 -47 0 -24 5 -48 12 -55 15 -15 -9 -212 -26 -212 -6 0 -3 -7 7 -14 16 -13 17 -21 9 -68 -6 -29 -8 -65 -5 -80 8 -42 -25 -137 -75 -215 -32 -52 -49 -70 -57 -63 -7 5 -14 7 -18 4 -3 -3 -16 8 -28 25 -13 18 -29 29 -36 27 -8 -3 -21 10 -32 32 -11 20 -29 46 -40 57 -12 11 -40 39 -63 63 -24 24 -66 54 -94 67 -29 13 -55 29 -59 34 -3 6 -13 11 -21 11 -13 0 -15 -16 -9 -112 3 -62 10 -142 16 -178 6 -36 13 -78 15 -94 5 -40 42 -99 106 -172 53 -61 176 -180 191 -186 5 -2 20 24 33 56 13 33 31 66 39 75 8 9 29 33 46 54 17 20 35 37 40 37 5 0 9 -21 9 -47 1 -49 4 -67 39 -213 11 -47 21 -99 21 -116 0 -17 5 -46 11 -63 l11 -33 67 5 c41 2 91 14 131 31 101 42 95 34 97 122 1 43 7 97 12 119 5 22 12 54 15 70 2 17 10 44 16 60 12 29 13 28 44 -70 51 -156 60 -187 61 -209 0 -20 6 -21 86 -22 47 -1 118 -7 158 -14 80 -13 91 -9 91 39 0 13 14 54 32 90 31 65 35 75 60 136 12 30 12 30 19 -25 5 -30 11 -82 14 -115 3 -33 12 -86 20 -118 8 -32 15 -67 15 -78 0 -10 12 -26 28 -36 15 -9 47 -32 71 -50 24 -18 52 -33 61 -33 9 0 25 -9 35 -20 l18 -20 34 20 c19 11 42 20 52 20 39 0 228 182 245 236 3 11 0 28 -9 40 -8 10 -15 27 -15 37 0 19 -21 68 -96 222 -24 50 -49 116 -54 147 -12 62 -3 109 46 255 13 39 24 79 24 89 0 9 7 22 15 28 11 9 15 37 16 126 1 123 -2 135 -85 380 -20 58 -36 106 -36 107 0 3 -87 43 -94 43 -2 0 -7 -8 -11 -19z"/>
 <path fill="#fdf5d4" d="M2680 2980 c0 -10 51 -99 81 -141 10 -14 29 -48 43 -75 21 -41 25 -44 24 -21 -1 15 -6 27 -10 27 -4 0 -8 7 -8 15 0 18 -28 69 -81 147 -39 57 -49 67 -49 48z"/>
 <path fill="#fdf5d4" d="M3285 2963 c3 -16 15 -35 25 -43 11 -8 33 -58 50 -110 17 -52 33 -97 37 -100 3 -3 2 20 -2 50 -4 30 -8 63 -8 73 -1 9 -5 17 -10 17 -5 0 -7 7 -3 15 3 8 2 15 -3 15 -4 0 -13 18 -20 40 -7 23 -18 40 -27 40 -8 0 -17 7 -20 15 -11 27 -27 16 -19 -12z"/>
 <path fill="#fdf5d4" d="M2126 2881 c-3 -5 10 -26 30 -47 19 -22 31 -30 25 -19 -5 11 -10 23 -10 27 -6 32 -34 57 -45 39z"/>
 <path fill="#fdf5d4" d="M897 2467 c-12 -5 -48 -6 -79 -3 -40 4 -65 1 -85 -9 -15 -8 -34 -15 -40 -15 -22 0 -14 -19 26 -59 21 -21 51 -41 67 -45 16 -4 74 -25 129 -47 105 -43 110 -45 189 -78 27 -12 54 -21 62 -21 11 0 44 89 44 120 0 6 18 41 40 77 22 37 40 70 40 75 0 9 -35 10 -238 12 -73 1 -143 -3 -155 -7z"/>
 <path fill="#fdf5d4" d="M4180 2420 c0 -17 -51 -33 -115 -36 -65 -3 -141 -34 -124 -51 7 -7 -25 -12 -90 -16 -101 -6 -141 -17 -141 -40 0 -7 -30 -21 -68 -32 -62 -19 -67 -23 -64 -47 2 -25 0 -26 -58 -33 -33 -4 -63 -11 -66 -16 -3 -6 -14 -7 -23 -4 -10 3 -24 -1 -31 -10 -12 -14 -11 -29 6 -69 6 -15 4 -18 -8 -13 -12 4 -18 -3 -23 -29 -3 -19 -11 -37 -18 -40 -18 -6 -13 -103 6 -139 9 -16 17 -38 17 -49 0 -10 10 -34 21 -53 12 -20 25 -49 28 -66 11 -52 31 -45 31 11 0 62 19 108 62 148 57 55 119 76 240 82 l108 5 -64 62 c-48 47 -68 75 -81 114 -19 58 -17 64 19 64 14 0 34 8 45 18 24 23 31 23 45 4 6 -8 23 -16 38 -17 24 -2 27 -6 26 -34 -1 -35 43 -104 117 -184 23 -25 49 -56 58 -68 l15 -24 7 22 c4 12 29 45 57 73 28 29 70 79 95 112 48 65 48 60 28 213 -7 53 -63 152 -87 152 -4 0 -8 -5 -8 -10z"/>
 <path fill="#fdf5d4" d="M3350 2356 c0 -25 6 -38 25 -50 14 -9 25 -12 25 -6 0 13 -39 90 -45 90 -3 0 -5 -15 -5 -34z"/>
 <path fill="#fdf5d4" d="M3710 1870 c-147 -27 -200 -79 -208 -203 -3 -52 -1 -77 8 -82 20 -12 229 -9 315 4 78 13 148 41 193 77 20 17 21 22 11 59 -18 63 -67 124 -108 134 -56 15 -162 20 -211 11z"/>
 <path fill="#fdf5d4" d="M4179 1856 c-3 -3 -26 -6 -52 -7 -48 -3 -48 -3 -41 -33 10 -46 22 -76 31 -75 13 1 70 72 77 97 7 19 -3 30 -15 18z"/>
 </g>

</svg>